<?xml version="1.0" encoding="UTF-8" standalone="no"?>
<!DOCTYPE svg PUBLIC "-//W3C//DTD SVG 1.1//EN"
 "http://www.w3.org/Graphics/SVG/1.1/DTD/svg11.dtd">
<!-- Generated by graphviz version 7.1.0 (20230121.1956)
 -->
<!-- Title: dependency&#45;cruiser output Pages: 1 -->
<svg width="474pt" height="586pt"
 viewBox="0.00 0.00 474.00 586.00" xmlns="http://www.w3.org/2000/svg" xmlns:xlink="http://www.w3.org/1999/xlink">
<g id="graph0" class="graph" transform="scale(1 1) rotate(0) translate(4 582)">
<title>dependency&#45;cruiser output</title>
<polygon fill="white" stroke="none" points="-4,4 -4,-582 470,-582 470,4 -4,4"/>
<g id="clust1" class="cluster">
<title>cluster_bin</title>
<path fill="#ffffff" stroke="black" stroke-width="2" d="M20,-488C20,-488 213,-488 213,-488 219,-488 225,-494 225,-500 225,-500 225,-558 225,-558 225,-564 219,-570 213,-570 213,-570 20,-570 20,-570 14,-570 8,-564 8,-558 8,-558 8,-500 8,-500 8,-494 14,-488 20,-488"/>
<text text-anchor="middle" x="116.5" y="-558.8" font-family="Helvetica,sans-Serif" font-weight="bold" font-size="9.00">bin</text>
</g>
<g id="clust2" class="cluster">
<title>cluster_lib</title>
<path fill="#ffffff" stroke="black" stroke-width="2" d="M129,-68C129,-68 446,-68 446,-68 452,-68 458,-74 458,-80 458,-80 458,-468 458,-468 458,-474 452,-480 446,-480 446,-480 129,-480 129,-480 123,-480 117,-474 117,-468 117,-468 117,-80 117,-80 117,-74 123,-68 129,-68"/>
<text text-anchor="middle" x="287.5" y="-468.8" font-family="Helvetica,sans-Serif" font-weight="bold" font-size="9.00">lib</text>
</g>
<g id="clust3" class="cluster">
<title>cluster_lib/composite</title>
<path fill="#ffffff" stroke="black" stroke-width="2" d="M145,-252C145,-252 357.5,-252 357.5,-252 363.5,-252 369.5,-258 369.5,-264 369.5,-264 369.5,-382 369.5,-382 369.5,-388 363.5,-394 357.5,-394 357.5,-394 145,-394 145,-394 139,-394 133,-388 133,-382 133,-382 133,-264 133,-264 133,-258 139,-252 145,-252"/>
<text text-anchor="middle" x="251.25" y="-382.8" font-family="Helvetica,sans-Serif" font-weight="bold" font-size="9.00">composite</text>
</g>
<g id="clust5" class="cluster">
<title>cluster_lib/iterator</title>
<path fill="#ffffff" stroke="black" stroke-width="2" d="M137,-162C137,-162 360,-162 360,-162 366,-162 372,-168 372,-174 372,-174 372,-232 372,-232 372,-238 366,-244 360,-244 360,-244 137,-244 137,-244 131,-244 125,-238 125,-232 125,-232 125,-174 125,-174 125,-168 131,-162 137,-162"/>
<text text-anchor="middle" x="248.5" y="-232.8" font-family="Helvetica,sans-Serif" font-weight="bold" font-size="9.00">iterator</text>
</g>
<g id="clust4" class="cluster">
<title>cluster_lib/filter</title>
<path fill="#ffffff" stroke="black" stroke-width="2" d="M167,-402C167,-402 213,-402 213,-402 219,-402 225,-408 225,-414 225,-414 225,-442 225,-442 225,-448 219,-454 213,-454 213,-454 167,-454 167,-454 161,-454 155,-448 155,-442 155,-442 155,-414 155,-414 155,-408 161,-402 167,-402"/>
<text text-anchor="middle" x="190" y="-442.8" font-family="Helvetica,sans-Serif" font-weight="bold" font-size="9.00">filter</text>
</g>
<g id="clust7" class="cluster">
<title>cluster_lib/stack</title>
<path fill="#ffffff" stroke="black" stroke-width="2" d="M392,-162C392,-162 438,-162 438,-162 444,-162 450,-168 450,-174 450,-174 450,-202 450,-202 450,-208 444,-214 438,-214 438,-214 392,-214 392,-214 386,-214 380,-208 380,-202 380,-202 380,-174 380,-174 380,-168 386,-162 392,-162"/>
<text text-anchor="middle" x="415" y="-202.8" font-family="Helvetica,sans-Serif" font-weight="bold" font-size="9.00">stack</text>
</g>
<g id="clust6" class="cluster">
<title>cluster_lib/mapper</title>
<path fill="#ffffff" stroke="black" stroke-width="2" d="M164.5,-76C164.5,-76 215.5,-76 215.5,-76 221.5,-76 227.5,-82 227.5,-88 227.5,-88 227.5,-116 227.5,-116 227.5,-122 221.5,-128 215.5,-128 215.5,-128 164.5,-128 164.5,-128 158.5,-128 152.5,-122 152.5,-116 152.5,-116 152.5,-88 152.5,-88 152.5,-82 158.5,-76 164.5,-76"/>
<text text-anchor="middle" x="190" y="-116.8" font-family="Helvetica,sans-Serif" font-weight="bold" font-size="9.00">mapper</text>
</g>
<g id="clust8" class="cluster">
<title>cluster_node_modules</title>
<path fill="#ffffff" stroke="black" stroke-width="2" d="M284,-8C284,-8 340,-8 340,-8 346,-8 352,-14 352,-20 352,-20 352,-48 352,-48 352,-54 346,-60 340,-60 340,-60 284,-60 284,-60 278,-60 272,-54 272,-48 272,-48 272,-20 272,-20 272,-14 278,-8 284,-8"/>
<text text-anchor="middle" x="312" y="-48.8" font-family="Helvetica,sans-Serif" font-weight="bold" font-size="9.00">node_modules</text>
</g>
<!-- bin/app.ts -->
<g id="node1" class="node">
<title>bin/app.ts</title>
<g id="a_node1"><a xlink:href="bin/app.ts" xlink:title="app.ts">
<path fill="#ddfeff" stroke="black" d="M211,-544C211,-544 169,-544 169,-544 166,-544 163,-541 163,-538 163,-538 163,-532 163,-532 163,-529 166,-526 169,-526 169,-526 211,-526 211,-526 214,-526 217,-529 217,-532 217,-532 217,-538 217,-538 217,-541 214,-544 211,-544"/>
<text text-anchor="start" x="177" y="-532.8" font-family="Helvetica,sans-Serif" font-size="9.00">app.ts</text>
</a>
</g>
</g>
<!-- bin/main.ts -->
<g id="node2" class="node">
<title>bin/main.ts</title>
<g id="a_node2"><a xlink:href="bin/main.ts" xlink:title="main.ts">
<path fill="#ddfeff" stroke="black" d="M83.5,-544C83.5,-544 41.5,-544 41.5,-544 38.5,-544 35.5,-541 35.5,-538 35.5,-538 35.5,-532 35.5,-532 35.5,-529 38.5,-526 41.5,-526 41.5,-526 83.5,-526 83.5,-526 86.5,-526 89.5,-529 89.5,-532 89.5,-532 89.5,-538 89.5,-538 89.5,-541 86.5,-544 83.5,-544"/>
<text text-anchor="start" x="47" y="-532.8" font-family="Helvetica,sans-Serif" font-size="9.00">main.ts</text>
</a>
</g>
</g>
<!-- bin/main.ts&#45;&gt;bin/app.ts -->
<g id="edge8" class="edge">
<title>bin/main.ts&#45;&gt;bin/app.ts</title>
<path fill="none" stroke="#000000" stroke-width="2" stroke-opacity="0.200000" d="M89.81,-535C108.38,-535 133.48,-535 153.78,-535"/>
<polygon fill="#000000" fill-opacity="0.200000" stroke="#000000" stroke-width="2" stroke-opacity="0.200000" points="153.7,-537.1 159.7,-535 153.7,-532.9 153.7,-537.1"/>
</g>
<!-- lib/composite/composite.ts -->
<g id="node3" class="node">
<title>lib/composite/composite.ts</title>
<g id="a_node3"><a xlink:href="lib/composite/composite.ts" xlink:title="composite.ts">
<path fill="#ddfeff" stroke="black" d="M219,-368C219,-368 161,-368 161,-368 158,-368 155,-365 155,-362 155,-362 155,-356 155,-356 155,-353 158,-350 161,-350 161,-350 219,-350 219,-350 222,-350 225,-353 225,-356 225,-356 225,-362 225,-362 225,-365 222,-368 219,-368"/>
<text text-anchor="start" x="163" y="-356.8" font-family="Helvetica,sans-Serif" font-size="9.00">composite.ts</text>
</a>
</g>
</g>
<!-- bin/main.ts&#45;&gt;lib/composite/composite.ts -->
<g id="edge1" class="edge">
<title>bin/main.ts&#45;&gt;lib/composite/composite.ts</title>
<path fill="none" stroke="#000000" stroke-width="2" stroke-opacity="0.200000" d="M89.82,-531.87C97.12,-529.69 104.31,-526.05 109,-520 125.5,-498.7 102.58,-421.76 117,-399 124.6,-387.01 137.13,-378.31 149.62,-372.14"/>
<polygon fill="#000000" fill-opacity="0.200000" stroke="#000000" stroke-width="2" stroke-opacity="0.200000" points="150.42,-374.08 155.02,-369.7 148.69,-370.26 150.42,-374.08"/>
</g>
<!-- lib/composite/leaf.ts -->
<g id="node4" class="node">
<title>lib/composite/leaf.ts</title>
<g id="a_node4"><a xlink:href="lib/composite/leaf.ts" xlink:title="leaf.ts">
<path fill="#ddfeff" stroke="black" d="M211,-338C211,-338 169,-338 169,-338 166,-338 163,-335 163,-332 163,-332 163,-326 163,-326 163,-323 166,-320 169,-320 169,-320 211,-320 211,-320 214,-320 217,-323 217,-326 217,-326 217,-332 217,-332 217,-335 214,-338 211,-338"/>
<text text-anchor="start" x="177.5" y="-326.8" font-family="Helvetica,sans-Serif" font-size="9.00">leaf.ts</text>
</a>
</g>
</g>
<!-- bin/main.ts&#45;&gt;lib/composite/leaf.ts -->
<g id="edge2" class="edge">
<title>bin/main.ts&#45;&gt;lib/composite/leaf.ts</title>
<path fill="none" stroke="#000000" stroke-width="2" stroke-opacity="0.200000" d="M89.9,-531.93C97.2,-529.75 104.38,-526.1 109,-520 120.83,-504.4 104.31,-358.9 117,-344 126.03,-333.39 140.44,-329.1 154.01,-327.67"/>
<polygon fill="#000000" fill-opacity="0.200000" stroke="#000000" stroke-width="2" stroke-opacity="0.200000" points="153.86,-329.79 159.71,-327.3 153.59,-325.59 153.86,-329.79"/>
</g>
<!-- lib/filter/filter.ts -->
<g id="node5" class="node">
<title>lib/filter/filter.ts</title>
<g id="a_node5"><a xlink:href="lib/filter/filter.ts" xlink:title="filter.ts">
<path fill="#ddfeff" stroke="black" d="M211,-428C211,-428 169,-428 169,-428 166,-428 163,-425 163,-422 163,-422 163,-416 163,-416 163,-413 166,-410 169,-410 169,-410 211,-410 211,-410 214,-410 217,-413 217,-416 217,-416 217,-422 217,-422 217,-425 214,-428 211,-428"/>
<text text-anchor="start" x="176" y="-416.8" font-family="Helvetica,sans-Serif" font-size="9.00">filter.ts</text>
</a>
</g>
</g>
<!-- bin/main.ts&#45;&gt;lib/filter/filter.ts -->
<g id="edge3" class="edge">
<title>bin/main.ts&#45;&gt;lib/filter/filter.ts</title>
<path fill="none" stroke="#000000" stroke-width="2" stroke-opacity="0.200000" d="M89.73,-531.24C96.84,-529.03 103.96,-525.54 109,-520 119.74,-508.2 108.98,-498.79 117,-485 129.42,-463.64 151.02,-445.22 167.33,-433.31"/>
<polygon fill="#000000" fill-opacity="0.200000" stroke="#000000" stroke-width="2" stroke-opacity="0.200000" points="168.25,-435.23 171.93,-430.05 165.82,-431.81 168.25,-435.23"/>
</g>
<!-- lib/iterator/composite_collection.ts -->
<g id="node6" class="node">
<title>lib/iterator/composite_collection.ts</title>
<g id="a_node6"><a xlink:href="lib/iterator/composite_collection.ts" xlink:title="composite_collection.ts">
<path fill="#ddfeff" stroke="black" d="M241,-188C241,-188 139,-188 139,-188 136,-188 133,-185 133,-182 133,-182 133,-176 133,-176 133,-173 136,-170 139,-170 139,-170 241,-170 241,-170 244,-170 247,-173 247,-176 247,-176 247,-182 247,-182 247,-185 244,-188 241,-188"/>
<text text-anchor="start" x="141" y="-176.8" font-family="Helvetica,sans-Serif" font-size="9.00">composite_collection.ts</text>
</a>
</g>
</g>
<!-- bin/main.ts&#45;&gt;lib/iterator/composite_collection.ts -->
<g id="edge4" class="edge">
<title>bin/main.ts&#45;&gt;lib/iterator/composite_collection.ts</title>
<path fill="none" stroke="#000000" stroke-width="2" stroke-opacity="0.200000" d="M89.98,-531.98C97.28,-529.81 104.44,-526.14 109,-520 119.8,-505.45 105.4,-207.91 117,-194 119.33,-191.21 122.02,-188.86 124.98,-186.87"/>
<polygon fill="#000000" fill-opacity="0.200000" stroke="#000000" stroke-width="2" stroke-opacity="0.200000" points="125.84,-188.8 130.14,-184.11 123.86,-185.09 125.84,-188.8"/>
</g>
<!-- lib/iterator/concrete_collection.ts -->
<g id="node7" class="node">
<title>lib/iterator/concrete_collection.ts</title>
<g id="a_node7"><a xlink:href="lib/iterator/concrete_collection.ts" xlink:title="concrete_collection.ts">
<path fill="#ddfeff" stroke="black" d="M237,-218C237,-218 143,-218 143,-218 140,-218 137,-215 137,-212 137,-212 137,-206 137,-206 137,-203 140,-200 143,-200 143,-200 237,-200 237,-200 240,-200 243,-203 243,-206 243,-206 243,-212 243,-212 243,-215 240,-218 237,-218"/>
<text text-anchor="start" x="145" y="-206.8" font-family="Helvetica,sans-Serif" font-size="9.00">concrete_collection.ts</text>
</a>
</g>
</g>
<!-- bin/main.ts&#45;&gt;lib/iterator/concrete_collection.ts -->
<g id="edge5" class="edge">
<title>bin/main.ts&#45;&gt;lib/iterator/concrete_collection.ts</title>
<path fill="none" stroke="#000000" stroke-width="2" stroke-opacity="0.200000" d="M89.96,-531.97C97.26,-529.8 104.42,-526.13 109,-520 127.01,-495.85 101.34,-274.73 117,-249 124.32,-236.97 136.65,-228.28 149.06,-222.14"/>
<polygon fill="#000000" fill-opacity="0.200000" stroke="#000000" stroke-width="2" stroke-opacity="0.200000" points="149.83,-224.1 154.42,-219.71 148.09,-220.27 149.83,-224.1"/>
</g>
<!-- lib/mapper/mapper.ts -->
<g id="node8" class="node">
<title>lib/mapper/mapper.ts</title>
<g id="a_node8"><a xlink:href="lib/mapper/mapper.ts" xlink:title="mapper.ts">
<path fill="#ddfeff" stroke="black" d="M213.5,-102C213.5,-102 166.5,-102 166.5,-102 163.5,-102 160.5,-99 160.5,-96 160.5,-96 160.5,-90 160.5,-90 160.5,-87 163.5,-84 166.5,-84 166.5,-84 213.5,-84 213.5,-84 216.5,-84 219.5,-87 219.5,-90 219.5,-90 219.5,-96 219.5,-96 219.5,-99 216.5,-102 213.5,-102"/>
<text text-anchor="start" x="168.5" y="-90.8" font-family="Helvetica,sans-Serif" font-size="9.00">mapper.ts</text>
</a>
</g>
</g>
<!-- bin/main.ts&#45;&gt;lib/mapper/mapper.ts -->
<g id="edge6" class="edge">
<title>bin/main.ts&#45;&gt;lib/mapper/mapper.ts</title>
<path fill="none" stroke="#000000" stroke-width="2" stroke-opacity="0.200000" d="M90,-532C97.3,-529.83 104.46,-526.16 109,-520 122.66,-501.49 102.08,-123.51 117,-106 125.43,-96.1 138.64,-92.04 151.45,-90.73"/>
<polygon fill="#000000" fill-opacity="0.200000" stroke="#000000" stroke-width="2" stroke-opacity="0.200000" points="151.3,-92.85 157.16,-90.4 151.05,-88.65 151.3,-92.85"/>
</g>
<!-- lib/person.ts -->
<g id="node9" class="node">
<title>lib/person.ts</title>
<g id="a_node9"><a xlink:href="lib/person.ts" xlink:title="person.ts">
<path fill="#ddfeff" stroke="black" d="M212,-154C212,-154 168,-154 168,-154 165,-154 162,-151 162,-148 162,-148 162,-142 162,-142 162,-139 165,-136 168,-136 168,-136 212,-136 212,-136 215,-136 218,-139 218,-142 218,-142 218,-148 218,-148 218,-151 215,-154 212,-154"/>
<text text-anchor="start" x="170" y="-142.8" font-family="Helvetica,sans-Serif" font-size="9.00">person.ts</text>
</a>
</g>
</g>
<!-- bin/main.ts&#45;&gt;lib/person.ts -->
<g id="edge7" class="edge">
<title>bin/main.ts&#45;&gt;lib/person.ts</title>
<path fill="none" stroke="#000000" stroke-width="2" stroke-opacity="0.200000" d="M89.99,-531.99C97.29,-529.82 104.45,-526.15 109,-520 120.94,-503.88 104.07,-174.34 117,-159 125.67,-148.72 139.44,-144.54 152.63,-143.17"/>
<polygon fill="#000000" fill-opacity="0.200000" stroke="#000000" stroke-width="2" stroke-opacity="0.200000" points="152.71,-145.27 158.58,-142.82 152.46,-141.08 152.71,-145.27"/>
</g>
<!-- lib/composite/base_component.ts -->
<g id="node13" class="node">
<title>lib/composite/base_component.ts</title>
<g id="a_node13"><a xlink:href="lib/composite/base_component.ts" xlink:title="base_component.ts">
<path fill="#ddfeff" stroke="black" d="M355.5,-323C355.5,-323 268.5,-323 268.5,-323 265.5,-323 262.5,-320 262.5,-317 262.5,-317 262.5,-311 262.5,-311 262.5,-308 265.5,-305 268.5,-305 268.5,-305 355.5,-305 355.5,-305 358.5,-305 361.5,-308 361.5,-311 361.5,-311 361.5,-317 361.5,-317 361.5,-320 358.5,-323 355.5,-323"/>
<text text-anchor="start" x="270.5" y="-311.8" font-family="Helvetica,sans-Serif" font-size="9.00">base_component.ts</text>
</a>
</g>
</g>
<!-- lib/composite/composite.ts&#45;&gt;lib/composite/base_component.ts -->
<g id="edge13" class="edge">
<title>lib/composite/composite.ts&#45;&gt;lib/composite/base_component.ts</title>
<path fill="none" stroke="#000000" stroke-width="2" stroke-opacity="0.200000" d="M225.36,-350.83C232.58,-348.82 240.1,-346.52 247,-344 259.89,-339.29 273.74,-332.97 285.24,-327.35"/>
<polygon fill="#000000" fill-opacity="0.200000" stroke="#000000" stroke-width="2" stroke-opacity="0.200000" points="286.01,-329.31 290.45,-324.76 284.14,-325.55 286.01,-329.31"/>
</g>
<!-- lib/composite/leaf.ts&#45;&gt;lib/composite/base_component.ts -->
<g id="edge15" class="edge">
<title>lib/composite/leaf.ts&#45;&gt;lib/composite/base_component.ts</title>
<path fill="none" stroke="#000000" stroke-width="2" stroke-opacity="0.200000" d="M217.33,-325.71C227.99,-324.38 240.73,-322.78 253.33,-321.21"/>
<polygon fill="#000000" fill-opacity="0.200000" stroke="#000000" stroke-width="2" stroke-opacity="0.200000" points="253.31,-323.33 259.01,-320.5 252.79,-319.16 253.31,-323.33"/>
</g>
<!-- lib/iterator/composite_iterator.ts -->
<g id="node14" class="node">
<title>lib/iterator/composite_iterator.ts</title>
<g id="a_node14"><a xlink:href="lib/iterator/composite_iterator.ts" xlink:title="composite_iterator.ts">
<path fill="#ddfeff" stroke="black" d="M358,-188C358,-188 266,-188 266,-188 263,-188 260,-185 260,-182 260,-182 260,-176 260,-176 260,-173 263,-170 266,-170 266,-170 358,-170 358,-170 361,-170 364,-173 364,-176 364,-176 364,-182 364,-182 364,-185 361,-188 358,-188"/>
<text text-anchor="start" x="268" y="-176.8" font-family="Helvetica,sans-Serif" font-size="9.00">composite_iterator.ts</text>
</a>
</g>
</g>
<!-- lib/iterator/composite_collection.ts&#45;&gt;lib/iterator/composite_iterator.ts -->
<g id="edge17" class="edge">
<title>lib/iterator/composite_collection.ts&#45;&gt;lib/iterator/composite_iterator.ts</title>
<path fill="none" stroke="#000000" stroke-width="2" stroke-opacity="0.200000" d="M247.49,-179C248.49,-179 249.49,-179 250.5,-179"/>
<polygon fill="#000000" fill-opacity="0.200000" stroke="#000000" stroke-width="2" stroke-opacity="0.200000" points="250.49,-181.1 256.49,-179 250.49,-176.9 250.49,-181.1"/>
</g>
<!-- lib/iterator/concrete_iterator.ts -->
<g id="node16" class="node">
<title>lib/iterator/concrete_iterator.ts</title>
<g id="a_node16"><a xlink:href="lib/iterator/concrete_iterator.ts" xlink:title="concrete_iterator.ts">
<path fill="#ddfeff" stroke="black" d="M353.5,-218C353.5,-218 270.5,-218 270.5,-218 267.5,-218 264.5,-215 264.5,-212 264.5,-212 264.5,-206 264.5,-206 264.5,-203 267.5,-200 270.5,-200 270.5,-200 353.5,-200 353.5,-200 356.5,-200 359.5,-203 359.5,-206 359.5,-206 359.5,-212 359.5,-212 359.5,-215 356.5,-218 353.5,-218"/>
<text text-anchor="start" x="272.5" y="-206.8" font-family="Helvetica,sans-Serif" font-size="9.00">concrete_iterator.ts</text>
</a>
</g>
</g>
<!-- lib/iterator/concrete_collection.ts&#45;&gt;lib/iterator/concrete_iterator.ts -->
<g id="edge19" class="edge">
<title>lib/iterator/concrete_collection.ts&#45;&gt;lib/iterator/concrete_iterator.ts</title>
<path fill="none" stroke="#000000" stroke-width="2" stroke-opacity="0.200000" d="M243.28,-209C247.3,-209 251.36,-209 255.4,-209"/>
<polygon fill="#000000" fill-opacity="0.200000" stroke="#000000" stroke-width="2" stroke-opacity="0.200000" points="255.14,-211.1 261.14,-209 255.14,-206.9 255.14,-211.1"/>
</g>
<!-- node_modules/uuid -->
<g id="node17" class="node">
<title>node_modules/uuid</title>
<g id="a_node17"><a xlink:href="node_modules/uuid" xlink:title="uuid">
<polygon fill="#c40b0a" fill-opacity="0.101961" stroke="black" points="339,-34 287,-34 285,-32 285,-16 337,-16 339,-18 339,-34"/>
<polyline fill="none" stroke="black" points="337,-32 285,-32"/>
<polyline fill="none" stroke="black" points="337,-32 337,-16"/>
<polyline fill="none" stroke="black" points="337,-32 339,-34"/>
<text text-anchor="start" x="302.5" y="-22.8" font-family="Helvetica,sans-Serif" font-size="9.00" fill="#c40b0a">uuid</text>
</a>
</g>
</g>
<!-- lib/person.ts&#45;&gt;node_modules/uuid -->
<g id="edge20" class="edge">
<title>lib/person.ts&#45;&gt;node_modules/uuid</title>
<path fill="none" stroke="#000000" stroke-opacity="0.200000" d="M218.49,-142.49C228.22,-140.53 238.78,-137.07 247,-131 278.2,-107.95 297.22,-64.72 305.72,-41.22"/>
<polygon fill="#000000" fill-opacity="0.200000" stroke="#000000" stroke-opacity="0.200000" points="307.63,-42.12 307.62,-35.76 303.67,-40.74 307.63,-42.12"/>
</g>
<!-- bin/tree_transversal.ts -->
<g id="node10" class="node">
<title>bin/tree_transversal.ts</title>
<g id="a_node10"><a xlink:href="bin/tree_transversal.ts" xlink:title="tree_transversal.ts">
<path fill="#ddfeff" stroke="black" d="M103,-514C103,-514 22,-514 22,-514 19,-514 16,-511 16,-508 16,-508 16,-502 16,-502 16,-499 19,-496 22,-496 22,-496 103,-496 103,-496 106,-496 109,-499 109,-502 109,-502 109,-508 109,-508 109,-511 106,-514 103,-514"/>
<text text-anchor="start" x="24" y="-502.8" font-family="Helvetica,sans-Serif" font-size="9.00">tree_transversal.ts</text>
</a>
</g>
</g>
<!-- bin/tree_transversal.ts&#45;&gt;lib/iterator/composite_collection.ts -->
<g id="edge11" class="edge">
<title>bin/tree_transversal.ts&#45;&gt;lib/iterator/composite_collection.ts</title>
<path fill="none" stroke="#000000" stroke-width="2" stroke-opacity="0.200000" d="M63.74,-495.65C65.15,-448.66 73.81,-238.73 117,-194 119.36,-191.56 122,-189.47 124.84,-187.67"/>
<polygon fill="#000000" fill-opacity="0.200000" stroke="#000000" stroke-width="2" stroke-opacity="0.200000" points="125.71,-189.58 130.09,-184.97 123.79,-185.85 125.71,-189.58"/>
</g>
<!-- bin/tree_transversal.ts&#45;&gt;lib/mapper/mapper.ts -->
<g id="edge12" class="edge">
<title>bin/tree_transversal.ts&#45;&gt;lib/mapper/mapper.ts</title>
<path fill="none" stroke="#000000" stroke-width="2" stroke-opacity="0.200000" d="M63.33,-495.65C62.54,-441.07 61.35,-164.23 117,-106 125.83,-96.76 138.83,-92.78 151.37,-91.34"/>
<polygon fill="#000000" fill-opacity="0.200000" stroke="#000000" stroke-width="2" stroke-opacity="0.200000" points="151.49,-93.44 157.33,-90.92 151.2,-89.25 151.49,-93.44"/>
</g>
<!-- lib/composite/composite_string.ts -->
<g id="node11" class="node">
<title>lib/composite/composite_string.ts</title>
<g id="a_node11"><a xlink:href="lib/composite/composite_string.ts" xlink:title="composite_string.ts">
<path fill="#ddfeff" stroke="black" d="M233,-308C233,-308 147,-308 147,-308 144,-308 141,-305 141,-302 141,-302 141,-296 141,-296 141,-293 144,-290 147,-290 147,-290 233,-290 233,-290 236,-290 239,-293 239,-296 239,-296 239,-302 239,-302 239,-305 236,-308 233,-308"/>
<text text-anchor="start" x="149" y="-296.8" font-family="Helvetica,sans-Serif" font-size="9.00">composite_string.ts</text>
</a>
</g>
</g>
<!-- bin/tree_transversal.ts&#45;&gt;lib/composite/composite_string.ts -->
<g id="edge9" class="edge">
<title>bin/tree_transversal.ts&#45;&gt;lib/composite/composite_string.ts</title>
<path fill="none" stroke="#000000" stroke-width="2" stroke-opacity="0.200000" d="M63.01,-495.76C61.94,-464.91 62.91,-364.55 117,-314 121.39,-309.9 126.59,-306.8 132.17,-304.47"/>
<polygon fill="#000000" fill-opacity="0.200000" stroke="#000000" stroke-width="2" stroke-opacity="0.200000" points="132.7,-306.51 137.69,-302.57 131.33,-302.54 132.7,-306.51"/>
</g>
<!-- lib/composite/leaf_string.ts -->
<g id="node12" class="node">
<title>lib/composite/leaf_string.ts</title>
<g id="a_node12"><a xlink:href="lib/composite/leaf_string.ts" xlink:title="leaf_string.ts">
<path fill="#ddfeff" stroke="black" d="M219,-278C219,-278 161,-278 161,-278 158,-278 155,-275 155,-272 155,-272 155,-266 155,-266 155,-263 158,-260 161,-260 161,-260 219,-260 219,-260 222,-260 225,-263 225,-266 225,-266 225,-272 225,-272 225,-275 222,-278 219,-278"/>
<text text-anchor="start" x="163" y="-266.8" font-family="Helvetica,sans-Serif" font-size="9.00">leaf_string.ts</text>
</a>
</g>
</g>
<!-- bin/tree_transversal.ts&#45;&gt;lib/composite/leaf_string.ts -->
<g id="edge10" class="edge">
<title>bin/tree_transversal.ts&#45;&gt;lib/composite/leaf_string.ts</title>
<path fill="none" stroke="#000000" stroke-width="2" stroke-opacity="0.200000" d="M64.44,-495.7C68.48,-457.64 85.59,-314.41 117,-284 124.74,-276.51 135.2,-272.32 145.74,-270.08"/>
<polygon fill="#000000" fill-opacity="0.200000" stroke="#000000" stroke-width="2" stroke-opacity="0.200000" points="146,-272.17 151.58,-269.12 145.32,-268.02 146,-272.17"/>
</g>
<!-- lib/composite/composite_string.ts&#45;&gt;lib/composite/base_component.ts -->
<g id="edge14" class="edge">
<title>lib/composite/composite_string.ts&#45;&gt;lib/composite/base_component.ts</title>
<path fill="none" stroke="#000000" stroke-width="2" stroke-opacity="0.200000" d="M239.46,-305.06C244.06,-305.63 248.75,-306.22 253.43,-306.8"/>
<polygon fill="#000000" fill-opacity="0.200000" stroke="#000000" stroke-width="2" stroke-opacity="0.200000" points="253.14,-308.88 259.35,-307.54 253.66,-304.72 253.14,-308.88"/>
</g>
<!-- lib/composite/leaf_string.ts&#45;&gt;lib/composite/base_component.ts -->
<g id="edge16" class="edge">
<title>lib/composite/leaf_string.ts&#45;&gt;lib/composite/base_component.ts</title>
<path fill="none" stroke="#000000" stroke-width="2" stroke-opacity="0.200000" d="M225.36,-277.17C232.58,-279.18 240.1,-281.48 247,-284 259.89,-288.71 273.74,-295.03 285.24,-300.65"/>
<polygon fill="#000000" fill-opacity="0.200000" stroke="#000000" stroke-width="2" stroke-opacity="0.200000" points="284.14,-302.45 290.45,-303.24 286.01,-298.69 284.14,-302.45"/>
</g>
<!-- lib/stack/stack.ts -->
<g id="node15" class="node">
<title>lib/stack/stack.ts</title>
<g id="a_node15"><a xlink:href="lib/stack/stack.ts" xlink:title="stack.ts">
<path fill="#ddfeff" stroke="black" d="M436,-188C436,-188 394,-188 394,-188 391,-188 388,-185 388,-182 388,-182 388,-176 388,-176 388,-173 391,-170 394,-170 394,-170 436,-170 436,-170 439,-170 442,-173 442,-176 442,-176 442,-182 442,-182 442,-185 439,-188 436,-188"/>
<text text-anchor="start" x="399" y="-176.8" font-family="Helvetica,sans-Serif" font-size="9.00">stack.ts</text>
</a>
</g>
</g>
<!-- lib/iterator/composite_iterator.ts&#45;&gt;lib/stack/stack.ts -->
<g id="edge18" class="edge">
<title>lib/iterator/composite_iterator.ts&#45;&gt;lib/stack/stack.ts</title>
<path fill="none" stroke="#000000" stroke-width="2" stroke-opacity="0.200000" d="M364.39,-179C369.32,-179 374.24,-179 378.95,-179"/>
<polygon fill="#000000" fill-opacity="0.200000" stroke="#000000" stroke-width="2" stroke-opacity="0.200000" points="378.71,-181.1 384.71,-179 378.71,-176.9 378.71,-181.1"/>
</g>
</g>
</svg>
